#!OML:ASF F:\VICON\USERDATA\INSTALL\Justin_Nancy\Justin_Nancy.ASF
:FULLY-SPECIFIED
:DEGREES
97
root 0.711942 15.8653 21.8541 5.15832 36.5776 -5.59116
lowerback 11.9198 2.39016 -6.04578
upperback 1.00045 2.51604 2.13527
thorax -5.99841 1.42813 5.25177
lowerneck -18.1783 -3.80969 -6.23103
upperneck 11.8656 -4.52479 5.90965
head 6.87391 -1.94197 2.42569
rclavicle 1.17283e-014 6.36111e-015
rhumerus -57.0115 12.6283 -94.6252
rradius 103.777
rwrist -9.65326
rhand -16.9761 30.1163
rfingers 7.12502
rthumb 9.25837 0.339584
lclavicle 1.17283e-014 6.36111e-015
lhumerus -39.3762 -5.39522 99.2371
lradius 106.162
lwrist 22.4538
lhand -15.4594 7.50861
lfingers 7.12502
lthumb 10.7216 37.215
rfemur -33.5649 -9.55623 7.35441
rtibia 90.967
rfoot -2.6253 -6.18324
rtoes -7.75418
lfemur -14.157 -1.48174 -38.4028
ltibia 42.3313
lfoot -23.9773 4.79939
ltoes 21.7359
98
root 1.00142 15.8861 22.3403 5.19064 36.1638 -5.83757
lowerback 11.7222 2.08793 -5.67263
upperback 1.01641 2.17801 2.17888
thorax -5.81097 1.24715 5.1499
lowerneck -18.6114 -3.52093 -6.22244
upperneck 12.1863 -4.09817 5.75759
head 7.01932 -1.74245 2.4217
rclavicle -1.36167e-014 2.54444e-014
rhumerus -58.4006 12.3184 -93.8554
rradius 104.515
rwrist -10.9826
rhand -16.7047 30.4694
rfingers 7.12502
rthumb 9.52029 0.704459
lclavicle -1.36167e-014 2.54444e-014
lhumerus -38.4189 -5.83168 99.1884
lradius 108.647
lwrist 25.1117
lhand -15.5691 7.4417
lfingers 7.12502
lthumb 10.6159 37.1536
rfemur -37.0337 -8.20026 7.6974
rtibia 90.2526
rfoot -3.70053 -5.83844
rtoes -6.30942
lfemur -11.9118 -1.55871 -37.96
ltibia 41.6124
lfoot -23.3454 4.88659
ltoes 18.4214
99
root 1.31383 15.9274 22.8341 5.42243 35.9389 -5.72872
lowerback 11.5544 1.76391 -5.48627
upperback 0.938728 1.77928 2.1814
thorax -5.74007 1.04611 5.11734
lowerneck -18.5489 -3.20541 -5.96855
upperneck 12.2522 -3.65738 5.25004
head 6.98704 -1.56628 2.26621
rclavicle 1.75924e-014 2.14687e-014
rhumerus -59.8633 11.9563 -93.1088
rradius 105.437
rwrist -12.5187
rhand -16.2473 30.5943
rfingers 7.12502
rthumb 9.96153 0.850059
lclavicle 1.75924e-014 2.14687e-014
lhumerus -37.9359 -6.37566 99.1657
lradius 111.338
lwrist 28.2237
lhand -15.4695 7.36734
lfingers 7.12502
lthumb 10.7119 37.0742
rfemur -39.9575 -7.48398 7.69434
rtibia 88.8967
rfoot -4.4262 -4.58373
rtoes -6.33748
lfemur -9.40594 -1.59629 -37.8112
ltibia 40.4689
lfoot -21.8176 4.98077
ltoes 13.3394
100
root 1.63096 15.9848 23.3426 5.64294 35.8454 -5.43954
lowerback 11.4205 1.36641 -5.58615
upperback 0.842753 1.24204 2.16074
thorax -5.69763 0.784915 5.24433
lowerneck -18.3348 -2.75671 -5.75833
upperneck 12.4247 -3.06446 4.91052
head 6.96322 -1.30564 2.1915
rclavicle 2.5842e-014 1.27222e-014
rhumerus -61.0468 11.7731 -92.3977
rradius 106.092
rwrist -13.7195
rhand -15.8935 30.5247
rfingers 7.12502
rthumb 10.3029 0.797012
lclavicle 2.5842e-014 1.27222e-014
lhumerus -37.5647 -6.66323 98.9123
lradius 113.934
lwrist 31.395
lhand -15.4236 7.36581
lfingers 7.12502
lthumb 10.7561 37.0704
rfemur -42.3975 -7.16944 7.65948
rtibia 87.0059
rfoot -5.10822 -3.28438
rtoes -9.57473
lfemur -6.66698 -1.46069 -37.7209
ltibia 39.0851
lfoot -19.7966 4.30123
ltoes 9.37017
101
root 1.95811 16.0553 23.8588 5.78229 35.6468 -5.38091
lowerback 11.1148 0.87119 -5.61028
upperback 0.756784 0.601152 2.26333
thorax -5.53278 0.468042 5.47319
lowerneck -18.761 -2.40297 -5.83668
upperneck 13.2233 -2.56375 4.9042
head 7.26832 -1.06521 2.26307
rclavicle 8.68689e-014 -1.39149e-014
rhumerus -62.3542 11.8504 -91.9303
rradius 106.778
rwrist -14.1944
rhand -15.9188 30.5083
rfingers 7.12502
rthumb 10.2785 0.779453
lclavicle 8.68689e-014 -1.39149e-014
lhumerus -37.0303 -6.53385 98.5555
lradius 116.343
lwrist 34.0499
lhand -15.6559 7.51125
lfingers 7.12502
lthumb 10.5321 37.2274
rfemur -44.6497 -6.85331 8.02521
rtibia 84.6071
rfoot -5.61852 -2.50075
rtoes -13.9467
lfemur -3.93982 -1.37018 -37.4032
ltibia 37.5892
lfoot -17.6228 3.33991
ltoes 5.8071
102
root 2.27429 16.1227 24.3727 5.97097 35.1324 -5.37648
lowerback 10.8675 0.553803 -5.71125
upperback 0.624577 0.186419 2.42774
thorax -5.47842 0.269591 5.77186
lowerneck -19.1272 -1.98672 -5.78313
upperneck 14.0117 -1.99859 4.81604
head 7.55575 -0.797765 2.29776
rclavicle 5.41688e-014 -1.59028e-014
rhumerus -63.9605 11.7582 -91.4792
rradius 107.717
rwrist -14.2238
rhand -15.8408 30.4568
rfingers 7.12502
rthumb 10.3538 0.731742
lclavicle 5.41688e-014 -1.59028e-014
lhumerus -36.6761 -6.6431 98.2665
lradius 118.543
lwrist 35.7108
lhand -15.2626 7.14512
lfingers 7.12502
lthumb 10.9115 36.8416
rfemur -46.9015 -6.53796 8.73815
rtibia 81.8119
rfoot -5.9215 -1.62129
rtoes -17.3163
lfemur -1.60136 -1.08583 -37.0294
ltibia 36.0957
lfoot -14.8763 2.42166
ltoes 3.14454
103
root 2.59472 16.186 24.8882 5.81159 34.5432 -5.99301
lowerback 10.7153 0.33627 -5.15698
upperback 0.375217 -0.0166788 2.67084
thorax -5.62793 0.169744 5.74638
lowerneck -19.1939 -1.6789 -6.2119
upperneck 14.3823 -1.42306 4.57932
head 7.65837 -0.571874 2.36152
rclavicle 8.28932e-014 -1.15295e-014
rhumerus -65.7095 11.4569 -90.9311
rradius 108.673
rwrist -14.4709
rhand -15.7714 30.411
rfingers 7.12502
rthumb 10.4207 0.689228
lclavicle 8.28932e-014 -1.15295e-014
lhumerus -36.9422 -7.16641 97.9354
lradius 120.544
lwrist 36.1219
lhand -14.1926 6.06614
lfingers 7.12502
lthumb 11.9434 35.7054
rfemur -48.6565 -6.19153 10.1915
rtibia 78.4113
rfoot -6.6037 -0.791977
rtoes -16.9725
lfemur 0.491715 -0.590261 -36.1296
ltibia 34.5237
lfoot -11.2495 1.22212
ltoes -0.885556
104
root 2.93695 16.2774 25.4158 5.21205 34.028 -7.19556
lowerback 10.5281 0.13577 -4.19711
upperback 0.222017 -0.132784 3.10542
thorax -5.66912 0.0982813 5.67732
lowerneck -19.1582 -1.36195 -6.06165
upperneck 14.7113 -0.930275 3.99032
head 7.72959 -0.390156 2.20247
rclavicle -4.80562e-014 -1.49089e-014
rhumerus -67.2478 11.11 -90.2291
rradius 109.515
rwrist -14.9752
rhand -15.6316 30.2479
rfingers 7.12502
rthumb 10.5555 0.532999
lclavicle -4.80562e-014 -1.49089e-014
lhumerus -37.2264 -7.67551 97.5501
lradius 122.272
lwrist 35.3577
lhand -12.5602 5.2329
lfingers 7.12502
lthumb 13.5172 34.7742
rfemur -49.8486 -5.74166 12.2091
rtibia 74.3823
rfoot -6.93109 0.357735
rtoes -15.5625
lfemur 2.79658 -0.20159 -34.6953
ltibia 32.5923
lfoot -6.75966 -0.80344
ltoes -7.33484
105
root 3.28954 16.3617 25.9558 5.17345 33.7467 -7.35856
lowerback 10.0638 -0.0671157 -4.12362
upperback 0.151795 -0.368658 3.30871
thorax -5.45079 -0.0224644 5.88001
lowerneck -18.8892 -1.09416 -5.85915
upperneck 14.7883 -0.584594 3.7059
head 7.68918 -0.245174 2.11587
rclavicle -1.65488e-014 4.13472e-014
rhumerus -68.6816 10.5773 -89.5402
rradius 110.358
rwrist -15.5728
rhand -15.3502 30.3419
rfingers 7.12502
rthumb 10.827 0.640999
lclavicle -1.65488e-014 4.13472e-014
lhumerus -37.3147 -8.0935 97.119
lradius 123.642
lwrist 33.8772
lhand -10.5137 5.54604
lfingers 7.12502
lthumb 15.4889 34.9456
rfemur -50.8293 -5.8059 13.4155
rtibia 70.1852
rfoot -6.89777 2.46324
rtoes -19.1723
lfemur 5.43647 -0.627422 -34.2297
ltibia 30.254
lfoot -0.942438 -3.03438
ltoes -10.63
